<?xml version="1.0" encoding="UTF-8"?>
<svg version="1.1" xmlns="http://www.w3.org/2000/svg" width="958" height="575">
<path d="M0 0 C316.14 0 632.28 0 958 0 C958 189.75 958 379.5 958 575 C641.86 575 325.72 575 0 575 C0 385.25 0 195.5 0 0 Z " fill="#000000" transform="translate(0,0)"/>
<path d="M0 0 C3.4375 2 3.4375 2 6 5 C7.07755983 10.38779916 6.22987465 13.14282133 3.3125 17.75 C-0.44106535 22.82732854 -3.84738131 25.62508208 -9.75 27.875 C-19.71131994 31.68243784 -30.11407957 38.96205661 -36 48 C-36.7490572 49.69246438 -37.49494091 51.38682417 -38.19628906 53.09960938 C-39.59078641 56.39692631 -41.25043855 59.56147768 -42.875 62.75 C-45.25954541 67.45173692 -47.54084093 72.15500683 -49.625 77 C-54.0373098 86.77428894 -61.10006145 94.06670763 -70 100 C-68.93294982 102.1953664 -67.81244286 104.32704951 -66.59765625 106.4453125 C-58.25661601 121.00499088 -56.8192223 136.33256605 -56.51708984 152.85888672 C-56.24314194 161.59870857 -54.26216773 168.73783227 -48 175 C-46.35394174 176.03357147 -44.69036558 177.04060332 -43 178 C-40.31237967 182.0314305 -40.28778417 185.72763774 -39.7578125 190.48046875 C-39.08771669 193.59261474 -38.44162251 195.09747031 -36.88671875 197.7421875 C-34.19163399 202.82359617 -34.94615309 207.39468344 -35.6875 212.9375 C-35.79255859 213.89462891 -35.89761719 214.85175781 -36.00585938 215.83789062 C-36.81274453 222.81274453 -36.81274453 222.81274453 -38 224 C-42.15217868 223.79239107 -45.02029064 223.52403059 -48.6875 221.5625 C-53.53015384 216.19631602 -57.0686937 208.93512144 -57.17578125 201.65625 C-57.19962891 200.82222656 -57.22347656 199.98820313 -57.24804688 199.12890625 C-57.29100954 197.37655008 -57.32226373 195.62386766 -57.34179688 193.87109375 C-57.32243463 188.90120589 -57.32243463 188.90120589 -60.04296875 185.03125 C-60.68878906 184.6909375 -61.33460938 184.350625 -62 184 C-62 183.34 -62 182.68 -62 182 C-62.59425781 181.88398438 -63.18851563 181.76796875 -63.80078125 181.6484375 C-71.58422595 179.35349643 -77.30542622 170.09067252 -82 164 C-82.41185547 163.47374023 -82.82371094 162.94748047 -83.24804688 162.40527344 C-91.01671046 152.40416647 -96.25871444 141.7780972 -101.20703125 130.16796875 C-105.80719559 119.40981549 -112.01938421 113.16586534 -123.01367188 108.59375 C-126.79379382 107.46380204 -130.64670805 107.64010324 -134.5625 107.625 C-142.65414027 107.42730734 -150.24065343 106.39339067 -158.125 104.5625 C-159.06674072 104.34480957 -160.00848145 104.12711914 -160.97875977 103.90283203 C-164.86521655 102.95257887 -167.63255864 102.2449609 -171 100 C-171.845625 99.773125 -172.69125 99.54625 -173.5625 99.3125 C-182.68486361 95.82941571 -191.55611326 88.39104634 -197.6875 80.8125 C-199.9585759 78.05038066 -201.98854333 75.93042094 -205 74 C-208.83007485 74 -211.18899581 76.62145799 -214 79 C-219.68565772 82.79043848 -228.33013483 81.71960592 -235 81 C-242.46656953 79.10596454 -249.04358296 75.48122504 -255.83203125 71.9375 C-258.63731458 70.7244045 -260.98594137 70.60341334 -264 71 C-264.28875 72.134375 -264.5775 73.26875 -264.875 74.4375 C-265.431875 76.2009375 -265.431875 76.2009375 -266 78 C-269.23354139 79.6167707 -271.42760535 79.47631929 -275 79 C-278.2926912 76.64705291 -280.50627933 73.86908539 -281.546875 69.9296875 C-281.79904011 66.24527503 -281.15511146 64.21327826 -279 61.25 C-272.42952322 56.32214242 -267.15412962 54.37388818 -258.9375 54.6875 C-257.7918457 54.70200195 -257.7918457 54.70200195 -256.62304688 54.71679688 C-252.00605264 54.80763594 -247.55592461 55.25580514 -243 56 C-243.061875 54.741875 -243.12375 53.48375 -243.1875 52.1875 C-243.23970703 51.12595703 -243.23970703 51.12595703 -243.29296875 50.04296875 C-243.87526025 47.79248069 -243.87526025 47.79248069 -246.13671875 46.21484375 C-249.64616731 44.7258417 -251.85256013 44.99179505 -255.625 45.375 C-263.05955778 45.58607577 -266.46223185 43.22481862 -271.79296875 38.26171875 C-272.88544922 37.14216797 -272.88544922 37.14216797 -274 36 C-274.88945312 35.18208984 -274.88945312 35.18208984 -275.796875 34.34765625 C-277 33 -277 33 -277.0625 30.75 C-275.7636249 27.38820562 -273.8271566 25.39404145 -271.41015625 22.765625 C-269.76526779 20.92428394 -269.76526779 20.92428394 -269 17.8125 C-267.8362148 14.53935412 -266.64858126 14.01536013 -263.73046875 12.34375 C-259.95758019 9.41401261 -257.56436811 4.97552927 -255 1 C-252.53199953 2.15173355 -250.95216435 3.04783565 -249 5 C-246.4242645 4.75073527 -245.27753932 4.27753932 -243.4375 2.4375 C-242.963125 1.963125 -242.48875 1.48875 -242 1 C-241.01 1 -240.02 1 -239 1 C-239 1.99 -239 2.98 -239 4 C-238.34 4 -237.68 4 -237 4 C-236.34 5.98 -235.68 7.96 -235 10 C-234.07380859 10.07347656 -234.07380859 10.07347656 -233.12890625 10.1484375 C-222.66832943 11.07189786 -214.69358648 13.39311845 -205.38671875 18.2578125 C-201.90826204 20.04719161 -198.39235288 21.60960075 -194.76953125 23.078125 C-192.75740651 24.12638425 -191.59642407 25.39195148 -190 27 C-188.16595203 28.25898879 -186.30885348 29.48466132 -184.4375 30.6875 C-178.66872085 34.48475896 -173.33030511 38.6184547 -168 43 C-166.41760909 44.25119281 -164.83425755 45.50117157 -163.25 46.75 C-159.13315274 50.04089671 -155.11971681 53.43822881 -151.125 56.875 C-150.52937256 57.38595215 -149.93374512 57.8969043 -149.32006836 58.42333984 C-146.47698045 60.86357665 -143.64243232 63.31232867 -140.82421875 65.78125 C-134.56884389 71.16849891 -128.44004636 75.4275564 -121 79 C-119.38544922 79.78697266 -119.38544922 79.78697266 -117.73828125 80.58984375 C-114.51583142 82.12060099 -111.26969375 83.57345408 -108 85 C-107.27683594 85.34417969 -106.55367187 85.68835938 -105.80859375 86.04296875 C-97.56728126 89.47819294 -86.47062296 89.5033773 -77.9296875 87.15625 C-63.24601197 80.34376104 -54.02812252 65.98578869 -48.625 51.25 C-48.40070313 50.61707031 -48.17640625 49.98414063 -47.9453125 49.33203125 C-46.15406337 44.91312327 -43.89345424 40.7045632 -41.71875 36.46484375 C-40.56610105 34.14120825 -39.49684229 31.77446101 -38.51171875 29.375 C-33.01719678 17.10816025 -21.50471424 7.41215899 -10 1 C-6.34711807 -0.21762731 -3.84245864 -0.39075851 0 0 Z " fill="#F8F8F8" transform="translate(617,190)"/>
<path d="M0 0 C0.66 0.33 1.32 0.66 2 1 C0.21479439 3.00611734 -1.57758712 5.0048717 -3.375 7 C-3.88289062 7.57234375 -4.39078125 8.1446875 -4.9140625 8.734375 C-6.23504905 10.19441277 -7.61400799 11.60152157 -9 13 C-9.66 13 -10.32 13 -11 13 C-9.46356148 9.31930113 -7.21849055 7.01224796 -4.375 4.25 C-3.55773437 3.45078125 -2.74046875 2.6515625 -1.8984375 1.828125 C-0.95871094 0.92320312 -0.95871094 0.92320312 0 0 Z " fill="#D1D1D1" transform="translate(596,198)"/>
<path d="M0 0 C0.99 0.33 1.98 0.66 3 1 C2.34 1 1.68 1 1 1 C0.566875 1.928125 0.566875 1.928125 0.125 2.875 C-1 5 -1 5 -3 7 C-5.625 6.625 -5.625 6.625 -8 6 C-7.67 5.34 -7.34 4.68 -7 4 C-6.38125 3.855625 -5.7625 3.71125 -5.125 3.5625 C-2.63289608 2.90282543 -1.6670554 1.91711371 0 0 Z " fill="#C3C3C3" transform="translate(375,191)"/>
</svg>
